<svg width="933" height="694" viewBox="0 0 933 694" fill="none" xmlns="http://www.w3.org/2000/svg">
<g filter="url(#filter0_d_249_9365)">
<path fill-rule="evenodd" clip-rule="evenodd" d="M293.359 0.718994H545.615C553.507 0.74202 561.069 3.88006 566.65 9.44766C572.231 15.0153 575.376 22.5599 575.399 30.4337V224.523C575.376 232.397 572.231 239.942 566.65 245.509C561.069 251.077 553.507 254.215 545.615 254.238H301.737C298.034 254.238 294.482 252.77 291.864 250.158C289.245 247.546 287.774 244.003 287.774 240.308C287.774 236.614 289.245 233.071 291.864 230.459C294.482 227.846 298.034 226.379 301.737 226.379H391.096C394.799 226.379 398.35 224.911 400.969 222.299C403.587 219.687 405.058 216.144 405.058 212.449C405.058 208.755 403.587 205.212 400.969 202.599C398.35 199.987 394.799 198.52 391.096 198.52H243.095C239.392 198.52 235.84 197.052 233.222 194.44C230.603 191.827 229.132 188.284 229.132 184.59C229.132 180.896 230.603 177.353 233.222 174.74C235.84 172.128 239.392 170.66 243.095 170.66H357.586C361.289 170.66 364.841 169.193 367.459 166.58C370.078 163.968 371.549 160.425 371.549 156.731C371.549 153.036 370.078 149.493 367.459 146.881C364.841 144.269 361.289 142.801 357.586 142.801H303.133C299.06 142.801 295.153 141.187 292.273 138.313C289.392 135.44 287.774 131.542 287.774 127.479C287.774 123.415 289.392 119.517 292.273 116.644C295.153 113.77 299.06 112.156 303.133 112.156H343.624C347.327 112.156 350.878 110.688 353.497 108.076C356.115 105.464 357.586 101.921 357.586 98.2263C357.586 94.532 356.115 90.9889 353.497 88.3766C350.878 85.7643 347.327 84.2967 343.624 84.2967H265.434C261.731 84.2967 258.18 82.8291 255.562 80.2168C252.943 77.6045 251.472 74.0615 251.472 70.3671C251.472 66.6727 252.943 63.1297 255.562 60.5174C258.18 57.9051 261.731 56.4375 265.434 56.4375H405.058C408.761 56.4375 412.313 54.9699 414.931 52.3576C417.55 49.7453 419.021 46.2022 419.021 42.5079C419.021 38.8135 417.55 35.2704 414.931 32.6581C412.313 30.0458 408.761 28.5782 405.058 28.5782H293.359C289.656 28.5782 286.105 27.1107 283.486 24.4983C280.868 21.886 279.397 18.343 279.397 14.6486C279.397 10.9542 280.868 7.4112 283.486 4.79889C286.105 2.18658 289.656 0.718994 293.359 0.718994ZM398.875 84.003H378.685L407.708 172.334H428.656L449.186 111.187L469.162 172.334H489.983L519.006 84.003H500.457L479.368 147.781L458.688 84.003H440.644L419.302 147.316L398.875 84.003Z" fill="#222222"/>
<path d="M255.473 420.108L240.83 385.135L226.188 420.108H255.473Z" fill="#222222"/>
<path fill-rule="evenodd" clip-rule="evenodd" d="M72.3624 282.038H338.58C346.473 282.061 354.035 285.199 359.616 290.767C365.196 296.334 368.342 303.879 368.365 311.753V505.842C368.342 513.716 365.196 521.261 359.616 526.828C354.035 532.396 346.473 535.534 338.58 535.557H86.3248C82.6218 535.557 79.0704 534.09 76.4519 531.477C73.8335 528.865 72.3624 525.322 72.3624 521.628C72.3624 517.933 73.8335 514.39 76.4519 511.778C79.0704 509.165 82.6218 507.698 86.3248 507.698H164.514C168.217 507.698 171.769 506.23 174.387 503.618C177.005 501.006 178.477 497.463 178.477 493.768C178.477 490.074 177.005 486.531 174.387 483.919C171.769 481.306 168.217 479.839 164.514 479.839H63.985C60.282 479.839 56.7306 478.371 54.1121 475.759C51.4937 473.146 50.0226 469.603 50.0226 465.909C50.0226 462.215 51.4937 458.672 54.1121 456.059C56.7306 453.447 60.282 451.979 63.985 451.979H144.967C148.67 451.979 152.221 450.512 154.84 447.9C157.458 445.287 158.929 441.744 158.929 438.05C158.929 434.355 157.458 430.812 154.84 428.2C152.221 425.588 148.67 424.12 144.967 424.12H98.8909C94.8222 424.113 90.9225 422.496 88.0479 419.623C85.1734 416.75 83.5589 412.857 83.5589 408.798C83.5589 404.738 85.1734 400.845 88.0479 397.972C90.9225 395.099 94.8222 393.482 98.8909 393.475H175.684C179.387 393.475 182.939 392.007 185.557 389.395C188.175 386.783 189.646 383.24 189.646 379.545C189.646 375.851 188.175 372.308 185.557 369.696C182.939 367.083 179.387 365.616 175.684 365.616H22.0979C20.2622 365.619 18.4438 365.261 16.7469 364.563C15.05 363.864 13.5078 362.839 12.2086 361.545C10.9094 360.251 9.87862 358.714 9.17536 357.023C8.4721 355.331 8.11011 353.518 8.11011 351.686C8.11011 349.855 8.4721 348.041 9.17536 346.35C9.87862 344.658 10.9094 343.121 12.2086 341.828C13.5078 340.534 15.05 339.508 16.7469 338.81C18.4438 338.111 20.2622 337.753 22.0979 337.757H198.024C201.727 337.757 205.278 336.289 207.897 333.677C210.515 331.064 211.986 327.521 211.986 323.827C211.986 320.133 210.515 316.59 207.897 313.977C205.278 311.365 201.727 309.897 198.024 309.897H72.3624C68.6594 309.897 65.108 308.43 62.4895 305.817C59.8711 303.205 58.4001 299.662 58.4001 295.968C58.4001 292.273 59.8711 288.73 62.4895 286.118C65.108 283.506 68.6594 282.038 72.3624 282.038ZM250.61 365.973H231.303L191.932 454.305H211.87L219.953 434.998H261.707L269.79 454.305H290.106L250.61 365.973Z" fill="#222222"/>
<path fill-rule="evenodd" clip-rule="evenodd" d="M426.085 282.042H620.631C628.523 282.065 636.085 285.203 641.666 290.771C647.247 296.338 650.392 303.883 650.415 311.757V505.846C650.392 513.72 647.247 521.265 641.666 526.832C636.085 532.4 628.523 535.538 620.631 535.561H426.085C418.192 535.538 410.63 532.4 405.049 526.832C399.469 521.265 396.323 513.72 396.3 505.846V311.757C396.323 303.883 399.469 296.338 405.049 290.771C410.63 285.203 418.192 282.065 426.085 282.042ZM502.553 452.841C509.031 454.692 515.761 455.617 522.743 455.617C530.735 455.617 537.507 454.439 543.059 452.084C548.612 449.644 552.776 446.405 555.552 442.367C558.328 438.245 559.716 433.66 559.716 428.613C559.716 422.724 558.16 418.055 555.047 414.606C551.934 411.157 548.233 408.633 543.943 407.035C539.652 405.352 534.184 403.796 527.538 402.366C522.911 401.356 519.336 400.431 516.812 399.59C514.373 398.748 512.311 397.655 510.629 396.309C508.946 394.879 508.105 393.028 508.105 390.757C508.105 387.56 509.535 384.994 512.396 383.059C515.256 381.124 519.63 380.157 525.519 380.157C529.473 380.157 533.511 380.746 537.633 381.923C541.839 383.101 545.919 384.826 549.873 387.097L556.057 372.207C552.103 369.683 547.434 367.79 542.05 366.528C536.666 365.182 531.198 364.509 525.645 364.509C517.569 364.509 510.755 365.729 505.203 368.169C499.735 370.524 495.613 373.763 492.836 377.885C490.144 382.008 488.798 386.592 488.798 391.64C488.798 397.613 490.313 402.366 493.341 405.899C496.454 409.348 500.155 411.872 504.446 413.47C508.736 415.069 514.246 416.625 520.976 418.139C525.435 419.233 528.926 420.2 531.45 421.042C534.058 421.883 536.203 423.019 537.886 424.449C539.568 425.879 540.409 427.73 540.409 430.001C540.409 433.029 538.937 435.469 535.993 437.32C533.132 439.086 528.716 439.97 522.743 439.97C517.527 439.97 512.269 439.129 506.97 437.446C501.754 435.679 497.295 433.408 493.594 430.632L487.032 445.396C490.902 448.508 496.075 450.99 502.553 452.841Z" fill="#222222"/>
<path d="M818.638 434.796C814.179 437.067 808.921 438.203 802.864 438.203H783.557V381.923H802.864C808.921 381.923 814.179 383.101 818.638 385.457C823.096 387.728 826.545 391.009 828.985 395.299C831.509 399.506 832.771 404.427 832.771 410.063C832.771 415.7 831.509 420.663 828.985 424.953C826.545 429.16 823.096 432.441 818.638 434.796Z" fill="#222222"/>
<path fill-rule="evenodd" clip-rule="evenodd" d="M708.126 282.042H902.672C910.564 282.065 918.126 285.203 923.707 290.771C929.288 296.338 932.433 303.883 932.456 311.757V505.846C932.433 513.72 929.288 521.265 923.707 526.832C918.126 532.4 910.564 535.538 902.672 535.561H708.126C700.233 535.538 692.671 532.4 687.09 526.832C681.509 521.265 678.364 513.72 678.341 505.846V311.757C678.364 303.883 681.509 296.338 687.09 290.771C692.671 285.203 700.233 282.065 708.126 282.042ZM803.874 365.898H764.124V454.229H803.874C813.38 454.229 821.792 452.42 829.111 448.803C836.514 445.101 842.235 439.928 846.273 433.282C850.395 426.552 852.456 418.812 852.456 410.063C852.456 401.314 850.395 393.617 846.273 386.971C842.235 380.241 836.514 375.067 829.111 371.45C821.792 367.748 813.38 365.898 803.874 365.898Z" fill="#222222"/>
<path d="M75.3798 597.342C73.4617 597.342 71.5942 597.157 69.7771 596.787C67.9936 596.451 66.3616 595.98 64.881 595.374C63.434 594.768 62.2058 594.112 61.1963 593.405L64.5276 587.096C65.6381 587.87 66.8159 588.543 68.0609 589.115C69.3396 589.653 70.6688 590.074 72.0484 590.377C73.4281 590.646 74.8078 590.781 76.1874 590.781C77.7017 590.781 78.9972 590.612 80.074 590.276C81.1844 589.939 82.0257 589.468 82.5977 588.863C83.2034 588.257 83.5063 587.517 83.5063 586.642C83.5063 585.834 83.1866 585.178 82.5473 584.673C81.9079 584.168 81.0667 583.748 80.0235 583.411C79.014 583.041 77.8867 582.688 76.6417 582.351C75.3966 582.015 74.1347 581.628 72.856 581.19C71.611 580.719 70.4669 580.147 69.4237 579.474C68.4142 578.767 67.5898 577.876 66.9505 576.799C66.3111 575.722 65.9914 574.376 65.9914 572.761C65.9914 570.338 66.6476 568.235 67.96 566.452C69.306 564.668 71.1904 563.288 73.6132 562.313C76.036 561.303 78.8794 560.798 82.1435 560.798C84.5326 560.798 86.7872 561.068 88.9071 561.606C91.0271 562.111 92.8442 562.851 94.3585 563.827L91.2795 570.086C89.9335 569.177 88.436 568.504 86.7872 568.067C85.1383 567.596 83.439 567.36 81.6892 567.36C80.1076 567.36 78.7448 567.545 77.6007 567.915C76.4903 568.285 75.6322 568.807 75.0265 569.48C74.4544 570.119 74.1684 570.86 74.1684 571.701C74.1684 572.542 74.4713 573.232 75.077 573.77C75.7163 574.275 76.5576 574.713 77.6007 575.083C78.6439 575.419 79.788 575.756 81.033 576.092C82.2781 576.429 83.5231 576.816 84.7682 577.253C86.0132 577.691 87.1573 578.246 88.2005 578.919C89.2436 579.592 90.0849 580.45 90.7242 581.493C91.3636 582.503 91.6833 583.781 91.6833 585.329C91.6833 587.752 91.0103 589.872 89.6643 591.689C88.3183 593.473 86.417 594.869 83.9606 595.879C81.5378 596.854 78.6775 597.342 75.3798 597.342Z" fill="#222222"/>
<path d="M97.7754 596.737L104.842 561.404H119.126C123.535 561.404 126.933 562.38 129.322 564.332C131.745 566.25 132.957 568.942 132.957 572.408C132.957 575.369 132.267 577.96 130.887 580.181C129.507 582.368 127.522 584.051 124.931 585.228C122.374 586.406 119.328 586.995 115.795 586.995H104.337L108.678 583.26L106.003 596.737H97.7754ZM108.476 584.219L105.599 580.332H116.148C118.84 580.332 120.927 579.727 122.407 578.515C123.922 577.27 124.679 575.47 124.679 573.114C124.679 571.398 124.107 570.136 122.962 569.329C121.818 568.487 120.203 568.067 118.117 568.067H108.173L112.514 564.079L108.476 584.219Z" fill="#222222"/>
<path d="M148.536 575.638H165.546L164.284 581.998H147.274L148.536 575.638ZM146.214 590.175H165.496L164.133 596.737H136.775L143.842 561.404H170.543L169.18 567.966H150.656L146.214 590.175Z" fill="#222222"/>
<path d="M184.923 575.638H201.934L200.672 581.998H183.662L184.923 575.638ZM182.602 590.175H201.883L200.52 596.737H173.163L180.229 561.404H206.931L205.568 567.966H187.043L182.602 590.175Z" fill="#222222"/>
<path d="M209.55 596.737L216.617 561.404H231.406C235.04 561.404 238.153 562.01 240.744 563.221C243.369 564.399 245.371 566.098 246.75 568.319C248.13 570.506 248.82 573.114 248.82 576.143C248.82 579.272 248.281 582.099 247.205 584.623C246.162 587.146 244.664 589.317 242.712 591.134C240.761 592.917 238.439 594.297 235.747 595.273C233.055 596.249 230.077 596.737 226.813 596.737H209.55ZM219.09 590.023H227.065C229.925 590.023 232.348 589.435 234.333 588.257C236.352 587.079 237.884 585.481 238.927 583.462C240.004 581.443 240.542 579.154 240.542 576.597C240.542 574.847 240.172 573.35 239.431 572.105C238.691 570.826 237.564 569.85 236.05 569.177C234.569 568.471 232.718 568.117 230.497 568.117H223.481L219.09 590.023Z" fill="#222222"/>
<path d="M253.775 596.737L260.842 561.404H275.227C279.635 561.404 283.034 562.363 285.423 564.281C287.846 566.199 289.057 568.891 289.057 572.357C289.057 575.318 288.351 577.893 286.937 580.08C285.558 582.233 283.572 583.899 280.981 585.077C278.424 586.255 275.395 586.844 271.896 586.844H260.387L264.678 583.26L262.003 596.737H253.775ZM276.489 596.737L269.271 583.916H277.852L285.12 596.737H276.489ZM264.476 584.219L261.649 580.332H272.199C274.924 580.332 277.027 579.727 278.508 578.515C280.022 577.27 280.779 575.47 280.779 573.114C280.779 571.398 280.19 570.136 279.013 569.329C277.869 568.487 276.253 568.067 274.167 568.067H264.223L268.514 564.079L264.476 584.219Z" fill="#222222"/>
<path d="M310.073 597.342C306.64 597.342 303.78 596.669 301.492 595.323C299.204 593.977 297.588 592.11 296.646 589.721C295.738 587.298 295.603 584.454 296.242 581.19L300.179 561.404H308.407L304.47 581.039C304.167 582.62 304.083 584 304.217 585.178C304.352 586.356 304.689 587.331 305.227 588.105C305.799 588.879 306.573 589.451 307.549 589.822C308.525 590.192 309.669 590.377 310.981 590.377C312.63 590.377 314.06 590.057 315.272 589.418C316.483 588.778 317.492 587.769 318.3 586.389C319.108 585.01 319.73 583.226 320.168 581.039L324.105 561.404H332.13L328.143 581.544C327.1 586.759 325.064 590.696 322.035 593.355C319.007 596.013 315.019 597.342 310.073 597.342Z" fill="#222222"/>
<path d="M335.718 596.737L342.785 561.404H349.549L364.742 586.995L362.066 586.844L367.114 561.404H375.19L368.123 596.737H361.41L346.167 571.146L348.892 571.297L343.794 596.737H335.718Z" fill="#222222"/>
<path d="M379.007 596.737L386.073 561.404H392.837L408.03 586.995L405.355 586.844L410.402 561.404H418.478L411.412 596.737H404.699L389.455 571.146L392.181 571.297L387.083 596.737H379.007Z" fill="#222222"/>
<path d="M422.295 596.737L429.362 561.404H437.589L430.522 596.737H422.295Z" fill="#222222"/>
<path d="M441.381 596.737L448.447 561.404H455.211L470.404 586.995L467.729 586.844L472.776 561.404H480.852L473.786 596.737H467.073L451.829 571.146L454.555 571.297L449.457 596.737H441.381Z" fill="#222222"/>
<path d="M503.244 597.342C499.677 597.342 496.581 596.703 493.957 595.424C491.366 594.112 489.347 592.312 487.9 590.023C486.486 587.702 485.78 585.026 485.78 581.998C485.78 579.003 486.301 576.21 487.344 573.619C488.421 571.028 489.936 568.79 491.887 566.906C493.839 564.988 496.178 563.49 498.903 562.414C501.629 561.337 504.657 560.798 507.989 560.798C511.354 560.798 514.265 561.337 516.721 562.414C519.211 563.457 521.213 564.971 522.728 566.956L516.872 571.701C515.695 570.288 514.349 569.278 512.834 568.672C511.354 568.067 509.621 567.764 507.635 567.764C505.549 567.764 503.665 568.117 501.982 568.824C500.333 569.497 498.92 570.456 497.742 571.701C496.565 572.946 495.656 574.41 495.017 576.092C494.377 577.741 494.058 579.541 494.058 581.493C494.058 583.277 494.445 584.841 495.219 586.187C495.993 587.5 497.137 588.526 498.651 589.266C500.199 590.007 502.083 590.377 504.304 590.377C505.987 590.377 507.602 590.091 509.15 589.519C510.698 588.947 512.195 588.055 513.642 586.844L516.771 593.052C514.988 594.432 512.919 595.492 510.563 596.232C508.241 596.972 505.802 597.342 503.244 597.342ZM509.604 591.79L512.229 578.515H519.699L516.771 593.052L509.604 591.79Z" fill="#222222"/>
<path d="M554.41 577.304H571.42L570.057 583.865H553.098L554.41 577.304ZM551.18 596.737H542.952L550.019 561.404H576.72L575.357 567.966H556.883L551.18 596.737Z" fill="#222222"/>
<path d="M595.691 597.342C592.124 597.342 589.045 596.703 586.454 595.424C583.896 594.112 581.928 592.312 580.548 590.023C579.168 587.702 578.478 585.026 578.478 581.998C578.478 578.969 579 576.176 580.043 573.619C581.086 571.028 582.567 568.79 584.485 566.906C586.437 564.988 588.742 563.49 591.4 562.414C594.092 561.337 597.07 560.798 600.334 560.798C603.901 560.798 606.963 561.455 609.521 562.767C612.112 564.046 614.097 565.846 615.477 568.168C616.856 570.456 617.546 573.114 617.546 576.143C617.546 579.171 617.025 581.981 615.981 584.572C614.938 587.13 613.441 589.367 611.489 591.285C609.571 593.17 607.266 594.65 604.574 595.727C601.916 596.804 598.955 597.342 595.691 597.342ZM596.397 590.377C598.383 590.377 600.166 590.023 601.748 589.317C603.363 588.576 604.726 587.567 605.836 586.288C606.946 585.01 607.788 583.546 608.36 581.897C608.965 580.214 609.268 578.448 609.268 576.597C609.268 574.847 608.898 573.316 608.158 572.004C607.418 570.658 606.324 569.615 604.877 568.874C603.464 568.134 601.714 567.764 599.628 567.764C597.642 567.764 595.859 568.134 594.277 568.874C592.696 569.581 591.333 570.574 590.189 571.852C589.078 573.131 588.22 574.612 587.614 576.294C587.042 577.943 586.756 579.693 586.756 581.544C586.756 583.293 587.127 584.841 587.867 586.187C588.641 587.5 589.734 588.526 591.148 589.266C592.595 590.007 594.344 590.377 596.397 590.377Z" fill="#222222"/>
<path d="M622.48 596.737L629.547 561.404H643.932C648.34 561.404 651.739 562.363 654.128 564.281C656.551 566.199 657.762 568.891 657.762 572.357C657.762 575.318 657.056 577.893 655.642 580.08C654.263 582.233 652.277 583.899 649.686 585.077C647.129 586.255 644.1 586.844 640.601 586.844H629.092L633.383 583.26L630.708 596.737H622.48ZM645.194 596.737L637.976 583.916H646.557L653.825 596.737H645.194ZM633.181 584.219L630.354 580.332H640.904C643.629 580.332 645.732 579.727 647.213 578.515C648.727 577.27 649.484 575.47 649.484 573.114C649.484 571.398 648.896 570.136 647.718 569.329C646.574 568.487 644.958 568.067 642.872 568.067H632.929L637.219 564.079L633.181 584.219Z" fill="#222222"/>
<path d="M697.514 597.342C693.914 597.342 690.801 596.703 688.176 595.424C685.585 594.112 683.583 592.312 682.17 590.023C680.756 587.702 680.05 585.026 680.05 581.998C680.05 579.003 680.571 576.21 681.615 573.619C682.691 571.028 684.189 568.79 686.107 566.906C688.059 564.988 690.364 563.49 693.022 562.414C695.714 561.337 698.709 560.798 702.007 560.798C705.17 560.798 707.963 561.337 710.385 562.414C712.808 563.49 714.642 565.038 715.887 567.057L709.982 571.903C709.073 570.557 707.912 569.531 706.499 568.824C705.086 568.117 703.403 567.764 701.451 567.764C699.466 567.764 697.666 568.117 696.05 568.824C694.435 569.497 693.039 570.473 691.861 571.751C690.717 572.996 689.842 574.46 689.236 576.143C688.631 577.825 688.328 579.609 688.328 581.493C688.328 583.277 688.715 584.841 689.489 586.187C690.263 587.5 691.39 588.526 692.871 589.266C694.351 590.007 696.135 590.377 698.221 590.377C700.038 590.377 701.737 590.057 703.319 589.418C704.9 588.745 706.331 587.702 707.609 586.288L712.455 591.235C710.604 593.388 708.4 594.953 705.843 595.929C703.319 596.871 700.543 597.342 697.514 597.342Z" fill="#222222"/>
<path d="M749.776 561.404H757.953L750.887 596.737H742.71L749.776 561.404ZM726.709 596.737H718.481L725.548 561.404H733.775L726.709 596.737ZM746.243 582.25H729.031L730.394 575.335H747.606L746.243 582.25Z" fill="#222222"/>
<path d="M757.126 596.737L779.941 561.404H788.067L796.749 596.737H788.572L781.708 565.442H784.938L765.858 596.737H757.126ZM766.565 589.165L769.896 582.957H788.118L789.077 589.165H766.565Z" fill="#222222"/>
<path d="M802.939 596.737L810.005 561.404H824.391C828.799 561.404 832.197 562.363 834.587 564.281C837.009 566.199 838.221 568.891 838.221 572.357C838.221 575.318 837.514 577.893 836.101 580.08C834.721 582.233 832.736 583.899 830.145 585.077C827.587 586.255 824.559 586.844 821.059 586.844H809.551L813.841 583.26L811.166 596.737H802.939ZM825.652 596.737L818.435 583.916H827.015L834.284 596.737H825.652ZM813.639 584.219L810.813 580.332H821.362C824.088 580.332 826.191 579.727 827.671 578.515C829.186 577.27 829.943 575.47 829.943 573.114C829.943 571.398 829.354 570.136 828.176 569.329C827.032 568.487 825.417 568.067 823.331 568.067H813.387L817.677 564.079L813.639 584.219Z" fill="#222222"/>
<path d="M842.579 596.737L849.646 561.404H857.873L850.807 596.737H842.579Z" fill="#222222"/>
<path d="M868.984 596.737L874.688 568.067H863.381L864.744 561.404H895.534L894.171 568.067H882.915L877.161 596.737H868.984Z" fill="#222222"/>
<path d="M903.484 596.737L906.361 582.2L907.269 587.348L896.871 561.404H905.048L912.973 581.241L908.026 581.291L924.027 561.404H932.456L911.761 587.399L914.538 582.2L911.66 596.737H903.484Z" fill="#222222"/>
<path d="M704.298 684.242L706.117 675.148L733.743 653.498C736.052 651.65 737.842 650.033 739.112 648.648C740.44 647.262 741.364 645.963 741.884 644.751C742.403 643.48 742.663 642.181 742.663 640.853C742.663 638.833 741.913 637.216 740.412 636.004C738.91 634.791 736.688 634.185 733.743 634.185C731.318 634.185 728.98 634.733 726.728 635.83C724.534 636.927 722.571 638.486 720.839 640.507L711.399 633.665C713.882 630.317 717.26 627.632 721.532 625.611C725.804 623.59 730.568 622.58 735.822 622.58C740.094 622.58 743.818 623.302 746.993 624.745C750.169 626.131 752.623 628.036 754.355 630.461C756.145 632.886 757.039 635.686 757.039 638.862C757.039 641.229 756.606 643.538 755.74 645.79C754.874 648.042 753.431 650.351 751.41 652.718C749.447 655.028 746.676 657.568 743.096 660.339L720.406 677.92L718.154 672.81H752.449L750.198 684.242H704.298Z" fill="#222222"/>
<path d="M787.424 685.281C782.92 685.281 779.023 684.386 775.732 682.596C772.499 680.749 769.988 678.122 768.198 674.715C766.408 671.251 765.513 667.123 765.513 662.331C765.513 656.846 766.264 651.708 767.765 646.916C769.324 642.124 771.489 637.909 774.26 634.272C777.031 630.576 780.351 627.719 784.219 625.698C788.145 623.619 792.447 622.58 797.123 622.58C801.627 622.58 805.495 623.504 808.728 625.351C812.019 627.141 814.56 629.739 816.349 633.146C818.139 636.552 819.034 640.68 819.034 645.53C819.034 651.015 818.255 656.153 816.696 660.945C815.195 665.738 813.058 669.981 810.287 673.676C807.516 677.314 804.196 680.171 800.328 682.25C796.459 684.271 792.158 685.281 787.424 685.281ZM788.723 673.416C791.379 673.416 793.717 672.55 795.738 670.818C797.758 669.028 799.433 666.719 800.761 663.89C802.146 661.061 803.186 658.059 803.878 654.883C804.571 651.708 804.918 648.705 804.918 645.876C804.918 641.893 804.109 639.006 802.493 637.216C800.876 635.369 798.653 634.445 795.824 634.445C793.168 634.445 790.83 635.34 788.809 637.129C786.789 638.862 785.085 641.142 783.7 643.971C782.372 646.8 781.361 649.802 780.669 652.978C779.976 656.153 779.629 659.156 779.629 661.985C779.629 665.911 780.438 668.798 782.054 670.645C783.729 672.493 785.951 673.416 788.723 673.416Z" fill="#222222"/>
<path d="M822.397 684.242L824.215 675.148L851.842 653.498C854.151 651.65 855.941 650.033 857.211 648.648C858.539 647.262 859.463 645.963 859.983 644.751C860.502 643.48 860.762 642.181 860.762 640.853C860.762 638.833 860.011 637.216 858.51 636.004C857.009 634.791 854.786 634.185 851.842 634.185C849.417 634.185 847.079 634.733 844.827 635.83C842.633 636.927 840.67 638.486 838.938 640.507L829.498 633.665C831.981 630.317 835.358 627.632 839.631 625.611C843.903 623.59 848.666 622.58 853.92 622.58C858.193 622.58 861.917 623.302 865.092 624.745C868.268 626.131 870.721 628.036 872.454 630.461C874.243 632.886 875.138 635.686 875.138 638.862C875.138 641.229 874.705 643.538 873.839 645.79C872.973 648.042 871.53 650.351 869.509 652.718C867.546 655.028 864.775 657.568 861.195 660.339L838.505 677.92L836.253 672.81H870.548L868.297 684.242H822.397Z" fill="#222222"/>
<path d="M898.854 685.281C894.408 685.281 890.251 684.675 886.383 683.462C882.515 682.25 879.282 680.518 876.684 678.266L883.439 667.96C885.402 669.692 887.798 671.049 890.627 672.031C893.514 673.012 896.574 673.503 899.807 673.503C902.578 673.503 904.916 673.157 906.822 672.464C908.785 671.771 910.257 670.761 911.238 669.433C912.278 668.105 912.797 666.546 912.797 664.756C912.797 662.562 911.96 660.945 910.286 659.906C908.669 658.809 906.187 658.261 902.838 658.261H896.429L898.248 648.994L918.686 629.855L919.639 634.878H887.682L890.021 623.619H932.456L930.724 632.713L910.286 651.852L903.704 647.868H906.822C911.036 647.868 914.645 648.532 917.647 649.86C920.649 651.13 922.959 652.978 924.575 655.403C926.192 657.77 927 660.599 927 663.89C927 667.989 925.788 671.655 923.363 674.889C920.996 678.122 917.676 680.662 913.403 682.51C909.189 684.357 904.339 685.281 898.854 685.281Z" fill="#222222"/>
</g>
<defs>
<filter id="filter0_d_249_9365" x="0.110107" y="0.718994" width="932.346" height="692.562" filterUnits="userSpaceOnUse" color-interpolation-filters="sRGB">
<feFlood flood-opacity="0" result="BackgroundImageFix"/>
<feColorMatrix in="SourceAlpha" type="matrix" values="0 0 0 0 0 0 0 0 0 0 0 0 0 0 0 0 0 0 127 0" result="hardAlpha"/>
<feOffset dx="-4" dy="4"/>
<feGaussianBlur stdDeviation="2"/>
<feComposite in2="hardAlpha" operator="out"/>
<feColorMatrix type="matrix" values="0 0 0 0 0 0 0 0 0 0 0 0 0 0 0 0 0 0 0.5 0"/>
<feBlend mode="normal" in2="BackgroundImageFix" result="effect1_dropShadow_249_9365"/>
<feBlend mode="normal" in="SourceGraphic" in2="effect1_dropShadow_249_9365" result="shape"/>
</filter>
</defs>
</svg>
